<svg width="185" height="48" viewBox="0 0 185 48" fill="none" xmlns="http://www.w3.org/2000/svg">
    <path
      d="M81.8782 12.6135H88.2857V42.2745H81.8782V38.0126C79.47 41.3705 76.0298 43.0494 71.5144 43.0494C67.4291 43.0494 63.9888 41.5427 61.1076 38.5292C58.2264 35.5157 56.7643 31.8135 56.7643 27.4655C56.7643 23.0745 58.1834 19.3723 61.0646 16.3588C63.9458 13.3453 67.4291 11.8386 71.4714 11.8386C75.9867 11.8386 79.427 13.5175 81.8352 16.8323V12.6135H81.8782ZM65.795 34.2243C67.5581 36.0323 69.7943 36.9364 72.5035 36.9364C75.1697 36.9364 77.4059 36.0323 79.212 34.2243C80.9751 32.4162 81.8782 30.1776 81.8782 27.4225C81.8782 24.7104 80.9751 22.4288 79.212 20.6207C77.4489 18.8126 75.2127 17.9086 72.5035 17.9086C69.8373 17.9086 67.6011 18.8126 65.795 20.6207C64.0318 22.4288 63.1288 24.6673 63.1288 27.4225C63.1288 30.1776 64.0318 32.4592 65.795 34.2243Z"
      fill="#333132" />
    <path
      d="M102.133 17.6072C103.767 13.948 106.777 12.0969 111.249 12.0969V19.0279C108.798 18.8557 106.648 19.4584 104.842 20.7929C103.036 22.1274 102.133 24.3229 102.133 27.3364V42.2745H95.7252V12.6135H102.133V17.6072Z"
      fill="#333132" />
    <path
      d="M122.043 6.97399C121.226 7.79193 120.28 8.17937 119.162 8.17937C118.044 8.17937 117.098 7.79193 116.281 6.97399C115.464 6.15605 115.077 5.20897 115.077 4.08968C115.077 2.9704 115.464 2.02332 116.281 1.20538C117.055 0.387444 118.044 0 119.162 0C120.323 0 121.269 0.387444 122.043 1.20538C122.817 2.02332 123.247 2.9704 123.247 4.08968C123.247 5.20897 122.86 6.15605 122.043 6.97399ZM115.98 42.2744V12.6135H122.387V42.2744H115.98Z"
      fill="#333132" />
    <path
      d="M135.331 20.7928C135.331 21.7829 135.89 22.5578 136.965 23.1175C138.04 23.6771 139.374 24.1937 140.922 24.5811C142.47 25.0116 144.061 25.4852 145.652 26.0448C147.243 26.6045 148.576 27.5515 149.651 28.843C150.726 30.1776 151.285 31.8565 151.285 33.8367C151.285 36.678 150.21 38.9166 148.017 40.5524C145.824 42.1883 143.072 42.9632 139.761 42.9632C136.836 42.9632 134.342 42.3605 132.235 41.1121C130.128 39.9067 128.623 38.1847 127.677 36.0323L133.181 32.8466C134.213 35.6879 136.406 37.1085 139.761 37.1085C143.115 37.1085 144.792 35.9892 144.792 33.7937C144.792 32.8466 144.233 32.0717 143.158 31.469C142.083 30.8663 140.75 30.3928 139.202 29.9623C137.653 29.5318 136.062 29.0583 134.471 28.4986C132.88 27.939 131.547 27.035 130.472 25.7435C129.397 24.452 128.838 22.8161 128.838 20.8359C128.838 18.1237 129.87 15.9282 131.934 14.2493C133.998 12.5704 136.578 11.7524 139.675 11.7524C142.126 11.7524 144.319 12.3121 146.211 13.3883C148.146 14.4645 149.608 15.9713 150.64 17.9085L145.265 20.9219C144.233 18.6834 142.384 17.5211 139.718 17.5211C138.513 17.5211 137.481 17.7793 136.621 18.339C135.761 18.9847 135.331 19.8027 135.331 20.7928Z"
      fill="#333132" />
    <path
      d="M161.176 30.1776C161.649 32.4161 162.724 34.1811 164.444 35.3865C166.122 36.5919 168.229 37.1946 170.68 37.1946C174.077 37.1946 176.614 35.9892 178.334 33.5354L183.624 36.6349C180.7 40.9399 176.356 43.0923 170.637 43.0923C165.821 43.0923 161.95 41.6287 158.983 38.6583C156.016 35.7309 154.554 31.9856 154.554 27.4654C154.554 23.0314 156.016 19.3291 158.94 16.3587C161.864 13.3883 165.606 11.8816 170.207 11.8816C174.55 11.8816 178.119 13.3883 180.915 16.4448C183.71 19.5013 185.086 23.2036 185.086 27.5515C185.086 28.2403 185 29.1013 184.828 30.2206H161.176V30.1776ZM161.133 24.9686H178.549C178.119 22.5578 177.13 20.7498 175.539 19.5013C173.991 18.2959 172.142 17.6502 170.078 17.6502C167.713 17.6502 165.735 18.2959 164.143 19.5874C162.552 20.9219 161.563 22.73 161.133 24.9686Z"
      fill="#333132" />
    <path
      d="M24.4259 4.95068L21.0717 6.8879C17.3304 9.04037 16.0403 13.8619 18.2334 17.6072L35.7788 48L45.9275 42.1453L24.4259 4.95068Z"
      fill="#00E1AB" />
    <path
      d="M14.5781 30.0054C11.5249 30.0054 8.85867 31.6412 7.39656 34.052L7.18154 34.4395L0 46.8377H14.5781C19.2225 46.8377 23.0067 43.0493 23.0067 38.4C23.0067 33.7507 19.2225 30.0054 14.5781 30.0054Z"
      fill="#0852ED" />
  </svg>
